# xmcd CD database file
#
# Track frame offsets:
#	150
#	36546
#	61427
#	99687
#	140562
#
# Disc length: 2185 seconds
#
# Revision: 0
# Processed by: cddbd v1.5.2PL0 Copyright (c) Steve Scherf et al.
# Submitted via: CDex 1.51
#
DISCID=4a088705
DTITLE=sOo-jung kae - sOo's Collage
DYEAR=2006
DGENRE=Jazz
TTITLE0=that's because
TTITLE1=3324 Tango
TTITLE2=wooly booly song
TTITLE3=umma umma
TTITLE4=ability vs. disability
EXTD=YEAR: 2006
EXTT0=
EXTT1=
EXTT2=
EXTT3=
EXTT4=
PLAYORDER=
